<?xml version="1.0" standalone="no"?>
<!DOCTYPE svg PUBLIC "-//W3C//DTD SVG 20010904//EN"
 "http://www.w3.org/TR/2001/REC-SVG-20010904/DTD/svg10.dtd">
<svg version="1.0" xmlns="http://www.w3.org/2000/svg"
 width="439.000000pt" height="439.000000pt" viewBox="0 0 439.000000 439.000000"
 preserveAspectRatio="xMidYMid meet">
<metadata>
Created by potrace 1.14, written by Peter Selinger 2001-2017
</metadata>
<g transform="translate(0.000000,439.000000) scale(0.100000,-0.100000)"
fill="#000000" stroke="none">
<path d="M1989 3555 c-3 -2 -65 -5 -139 -6 -182 -2 -290 -22 -410 -77 -30 -14
-58 -24 -62 -24 -5 1 -8 -2 -8 -8 0 -5 -6 -10 -14 -10 -8 0 -22 -7 -30 -16 -9
-8 -16 -13 -16 -9 0 11 -92 -66 -172 -144 -43 -42 -78 -81 -78 -87 0 -7 -4
-14 -8 -16 -31 -12 -144 -236 -156 -308 -3 -14 -5 -26 -7 -27 -1 -2 -2 -6 -3
-10 -8 -33 -20 -53 -31 -53 -28 0 -121 -51 -167 -91 -26 -22 -62 -64 -81 -92
-56 -86 -67 -132 -67 -293 0 -156 10 -202 60 -284 27 -45 27 -48 33 -265 6
-228 24 -349 75 -510 32 -98 118 -284 141 -305 3 -3 14 -21 24 -41 10 -20 29
-47 41 -60 13 -14 25 -30 27 -36 8 -23 156 -177 229 -238 214 -178 441 -289
707 -346 78 -17 136 -22 283 -23 102 0 210 3 240 7 271 38 558 166 770 342
114 95 298 294 273 295 -4 0 -1 5 8 10 29 17 164 261 152 274 -4 3 -1 6 5 6 7
0 12 8 12 18 0 10 4 22 10 28 5 5 11 18 13 29 2 11 7 27 10 35 15 35 36 114
31 121 -2 4 0 9 5 11 20 7 41 220 41 407 l0 189 35 52 c56 83 68 140 63 304
-2 77 -8 148 -13 156 -5 8 -11 23 -12 33 -5 29 -66 118 -111 162 -37 35 -111
84 -137 90 -46 10 -65 27 -75 67 -21 87 -83 231 -130 301 -49 76 -186 227
-204 227 -6 0 -17 9 -24 20 -7 11 -19 20 -27 20 -8 0 -15 3 -15 8 0 6 -114 74
-130 78 -3 0 -18 6 -35 13 -16 7 -34 14 -40 15 -5 2 -21 8 -35 14 -67 31 -189
45 -407 48 -125 2 -223 -1 -223 -6 0 -5 -10 -7 -22 -4 -33 7 -194 15 -199 9z"/>
</g>
</svg>
